<svg width="185" height="43" viewBox="0 0 185 43" fill="none" xmlns="http://www.w3.org/2000/svg">
<g clip-path="url(#clip0_11_2)">
<g clip-path="url(#clip1_11_2)">
<path d="M167.862 0.00690371C169.056 -0.040082 170.304 0.144273 171.315 0.822333C172.972 1.86114 173.77 3.95041 173.448 5.84772C171.847 15.9638 170.224 26.0744 168.616 36.1885C168.534 36.7019 168.457 37.2172 168.33 37.7227C167.517 40.7413 164.545 43.0785 161.394 42.9981C113.31 42.9942 65.2249 42.9981 17.1397 42.9962C15.5364 43.0353 13.8979 42.3289 12.9512 41.0098C12.1222 39.8946 11.8537 38.4345 12.0733 37.0782C13.7178 26.7328 15.3701 16.3894 17.0205 6.04597C17.4439 3.14502 19.857 0.692506 22.7168 0.127997C23.1341 0.0457555 23.5612 0.0167007 23.9863 0.00885683C71.9441 0.00493663 119.905 0.012784 167.862 0.00690371ZM150.584 9.08796C147.168 8.59793 143.533 9.257 140.622 11.1505C138.572 12.4755 136.997 14.5961 136.562 17.0206C136.193 18.9278 136.232 21.1096 137.479 22.7071C138.796 24.3809 140.96 25.0311 142.977 25.3741C144.831 25.7308 146.773 25.5489 148.584 26.1485C149.311 26.3798 150.088 26.9738 150.002 27.8262C149.941 28.961 148.861 29.661 147.877 29.9669C146.164 30.4843 144.23 30.5056 142.58 29.7628C141.792 29.4216 141.195 28.6456 141.285 27.7579C139.002 27.7598 136.72 27.7579 134.438 27.7598C134.111 29.618 134.44 31.651 135.665 33.1329C137.331 35.1811 139.997 36.0947 142.547 36.377C146.216 36.7455 150.094 35.9842 153.149 33.8536C155.153 32.4658 156.646 30.2744 156.925 27.8223C157.199 26.0291 156.954 23.9695 155.576 22.6602C153.879 21.055 151.454 20.6839 149.235 20.3507C147.577 20.0861 145.839 20.1253 144.267 19.4747C143.543 19.1924 143.004 18.416 143.208 17.6241C143.42 16.3306 144.67 15.552 145.842 15.2247C147.232 14.8523 148.845 14.802 150.109 15.586C150.766 15.98 151.034 16.7622 150.97 17.4991H157.711C158.013 15.7331 157.758 13.808 156.666 12.3458C155.251 10.4152 152.887 9.43886 150.584 9.08796ZM71.3135 10.6641C68.3518 9.04509 64.8076 8.75677 61.5264 9.34284C57.8845 10.0034 54.4248 11.8164 51.9473 14.586C49.2542 17.5731 47.8296 21.6441 47.9883 25.6563C48.0843 28.0946 48.9658 30.5376 50.6397 32.337C52.6919 34.5891 55.6993 35.7745 58.6904 36.0489C62.9712 36.4291 67.4854 35.2766 70.7959 32.4659C72.8891 30.7078 74.3634 28.2855 75.1455 25.6768C72.813 25.6768 70.48 25.6768 68.1475 25.6788C67.7065 26.6233 67.1208 27.5154 66.3154 28.1934C64.767 29.5341 62.6399 30.0767 60.6231 29.9161C59.1059 29.7887 57.6117 29.0786 56.6768 27.8575C55.4599 26.3091 55.1911 24.1961 55.5693 22.3067C55.9908 19.9762 57.2868 17.7536 59.3096 16.4678C61.3931 15.1272 64.1334 14.8544 66.4443 15.7403C67.8615 16.297 68.7714 17.6756 69.0772 19.126C71.4095 19.128 73.7419 19.128 76.0742 19.126C76.0527 17.9578 75.9291 16.7814 75.5508 15.67C74.8648 13.5258 73.2813 11.7304 71.3135 10.6641ZM28.7695 30.3516C28.4775 32.1862 28.1807 34.0229 27.8926 35.8614C31.5305 35.8634 35.1707 35.8634 38.8106 35.8594C39.1045 34.023 39.3984 32.1881 39.6865 30.3497C36.0488 30.3477 32.4092 30.3477 28.7695 30.3516ZM75.8272 34.5635C75.5528 34.9379 75.5491 35.4185 75.4707 35.8594C77.7914 35.8634 80.11 35.8614 82.4307 35.8614C83.1558 34.7521 83.8715 33.6367 84.5967 32.5294C88.2562 32.5313 91.9138 32.5274 95.5713 32.5313C95.9417 33.6406 96.3024 34.7521 96.6729 35.8614C98.9936 35.8614 101.313 35.8634 103.634 35.8614C103.987 34.8559 103.439 33.9107 103.165 32.9659C100.558 24.9824 97.9526 17.0011 95.3438 9.0196C94.3226 9.0196 93.3014 9.01764 92.2803 9.0196C86.796 17.5342 81.3174 26.0528 75.8272 34.5635ZM111.48 9.36042C110.068 18.1926 108.659 27.0272 107.254 35.8594C109.626 35.8634 111.998 35.8614 114.371 35.8614C114.789 33.2623 115.2 30.6626 115.615 28.0635C116.848 28.0616 118.082 28.0596 119.316 28.0635C120.491 30.6626 121.667 33.2623 122.845 35.8614C125.497 35.8634 128.147 35.8614 130.799 35.8614C130.848 35.5301 130.9 35.2024 130.955 34.8751C129.585 32.0741 128.215 29.2747 126.849 26.4737C130.077 24.5861 132.3 21.0016 132.325 17.2364C132.359 15.0489 131.516 12.8001 129.826 11.3653C128.166 9.92085 125.912 9.37611 123.754 9.36433C119.661 9.35256 115.57 9.36042 111.48 9.36042ZM33.6592 15.8272C31.3719 15.8292 29.0822 15.8252 26.793 15.8292C26.5206 17.5343 26.248 19.2393 25.9775 20.9444C28.2669 20.9444 30.5553 20.9424 32.8428 20.9464C32.4861 23.2161 32.1194 25.4862 31.7588 27.7559C33.6894 27.7598 35.6183 27.7579 37.5488 27.7579C37.9154 25.4862 38.2702 23.2161 38.6367 20.9464C40.9534 20.9424 43.2683 20.9464 45.585 20.9444C45.8574 19.2393 46.1299 17.5343 46.4004 15.8292C44.0837 15.8252 41.7689 15.8292 39.4522 15.8253C39.8089 13.5809 40.1696 11.3381 40.5244 9.09382C38.5957 9.09186 36.6641 9.09186 34.7354 9.09382C34.3747 11.3381 34.0198 13.5829 33.6592 15.8272ZM94.1875 26.7374C92.0668 26.7393 89.9479 26.7393 87.8272 26.7374C89.2443 24.4166 90.6551 22.0913 92.0801 19.7745C92.7798 22.0952 93.4897 24.4147 94.1875 26.7374ZM117.633 15.4171C119.418 15.4288 121.206 15.3503 122.987 15.4444C123.879 15.4797 124.725 16.0625 125.021 16.9132C125.769 19.0594 124.248 21.8814 121.872 22.0225C120.108 22.0715 118.342 22.0303 116.576 22.0421C116.927 19.8332 117.278 17.626 117.633 15.4171Z" fill="#FEFEFE"/>
</g>
</g>
<defs>
<clipPath id="clip0_11_2">
<rect width="161.518" height="43.0001" fill="white" transform="translate(12)"/>
</clipPath>
<clipPath id="clip1_11_2">
<rect width="161.518" height="43.0001" fill="white" transform="translate(12)"/>
</clipPath>
</defs>
</svg>
