<svg preserveAspectRatio="none" width="100%" height="100%" overflow="visible" style="display: block;" viewBox="0 0 25 25" fill="none" xmlns="http://www.w3.org/2000/svg">
<g id="ico-btn-inst.svg" clip-path="url(#clip0_0_28)">
<path id="Vector" d="M12.5 9.05C11.8199 9.05986 11.1578 9.27054 10.5971 9.65558C10.0364 10.0406 9.60196 10.5828 9.34849 11.214C9.09501 11.8452 9.03379 12.5373 9.1725 13.2032C9.31121 13.8691 9.64367 14.4791 10.1281 14.9566C10.6125 15.4341 11.2273 15.7578 11.8951 15.8869C12.5629 16.016 13.254 15.9448 13.8815 15.6823C14.509 15.4198 15.0449 14.9776 15.4219 14.4114C15.7988 13.8452 15.9999 13.1802 16 12.5C15.9987 12.0431 15.9069 11.5909 15.73 11.1697C15.553 10.7484 15.2943 10.3664 14.9689 10.0456C14.6435 9.72488 14.2578 9.47175 13.8341 9.30087C13.4103 9.12998 12.9569 9.04472 12.5 9.05ZM12.5 14.74C12.057 14.74 11.6239 14.6086 11.2555 14.3625C10.8872 14.1164 10.6 13.7665 10.4305 13.3572C10.261 12.9479 10.2166 12.4975 10.303 12.063C10.3895 11.6285 10.6028 11.2293 10.9161 10.9161C11.2293 10.6028 11.6285 10.3895 12.063 10.303C12.4975 10.2166 12.9479 10.261 13.3572 10.4305C13.7665 10.6 14.1164 10.8872 14.3625 11.2555C14.6086 11.6239 14.74 12.057 14.74 12.5C14.74 13.0941 14.504 13.6638 14.0839 14.0839C13.6638 14.504 13.0941 14.74 12.5 14.74Z" fill="var(--fill-0, white)"/>
<path id="Vector_2" d="M12.5 0C10.0277 0 7.61099 0.733112 5.55538 2.10663C3.49976 3.48015 1.89761 5.43238 0.951511 7.71646C0.00541604 10.0005 -0.242126 12.5139 0.24019 14.9386C0.722505 17.3634 1.91301 19.5907 3.66117 21.3388C5.40933 23.087 7.63661 24.2775 10.0614 24.7598C12.4861 25.2421 14.9995 24.9946 17.2835 24.0485C19.5676 23.1024 21.5199 21.5002 22.8934 19.4446C24.2669 17.389 25 14.9723 25 12.5C25 9.18479 23.683 6.00537 21.3388 3.66117C18.9946 1.31696 15.8152 0 12.5 0ZM18 15.21C17.9942 15.6366 17.9165 16.0592 17.77 16.46C17.6558 16.7469 17.4843 17.0076 17.266 17.2259C17.0476 17.4443 16.787 17.6158 16.5 17.73C16.099 17.8754 15.6765 17.9531 15.25 17.96C14.54 17.96 14.33 17.96 12.54 17.96C10.75 17.96 10.54 17.96 9.83001 17.96C9.40347 17.9531 8.98105 17.8754 8.58001 17.73C8.29121 17.619 8.02895 17.4486 7.81017 17.2298C7.5914 17.0111 7.421 16.7488 7.31001 16.46C7.13612 16.0641 7.03127 15.6413 7.00001 15.21C7.00001 14.5 7.00001 14.29 7.00001 12.5C7.00001 10.71 7.00001 10.5 7.00001 9.79C7.00689 9.36347 7.08462 8.94105 7.23001 8.54C7.34537 8.24726 7.52191 7.98252 7.74783 7.7635C7.97374 7.54448 8.24383 7.37623 8.54001 7.27C8.93871 7.11094 9.3612 7.01969 9.79001 7C10.5 7 10.71 7 12.5 7C14.29 7 14.5 7 15.21 7C15.6366 7.00576 16.0593 7.08352 16.46 7.23C16.7488 7.341 17.0111 7.5114 17.2298 7.73017C17.4486 7.94894 17.619 8.21121 17.73 8.5C17.8935 8.91128 17.9848 9.34768 18 9.79C18 10.5 18 10.71 18 12.5C18 14.29 18 14.5 18 15.21Z" fill="var(--fill-0, white)"/>
<path id="Vector_3" d="M16.08 8.11C15.9198 8.11 15.7632 8.15751 15.63 8.24651C15.4968 8.33551 15.393 8.46202 15.3317 8.61003C15.2704 8.75803 15.2543 8.9209 15.2856 9.07802C15.3168 9.23515 15.394 9.37948 15.5072 9.49276C15.6205 9.60604 15.7649 9.68318 15.922 9.71444C16.0791 9.74569 16.242 9.72965 16.39 9.66834C16.538 9.60704 16.6645 9.50322 16.7535 9.37001C16.8425 9.23681 16.89 9.0802 16.89 8.92C16.8913 8.81326 16.8713 8.70733 16.8311 8.60845C16.7908 8.50957 16.7312 8.41974 16.6557 8.34425C16.5803 8.26877 16.4904 8.20915 16.3916 8.16892C16.2927 8.12869 16.1867 8.10866 16.08 8.11Z" fill="var(--fill-0, white)"/>
</g>
<defs>
<clipPath id="clip0_0_28">
<rect width="25" height="25" fill="white"/>
</clipPath>
</defs>
</svg>
