<svg preserveAspectRatio="none" width="100%" height="100%" overflow="visible" style="display: block;" viewBox="0 0 25 25" fill="none" xmlns="http://www.w3.org/2000/svg">
<g id="ico-btn-tiktok.svg" clip-path="url(#clip0_0_32)">
<path id="Vector" d="M12.5 0C10.0277 0 7.61099 0.733112 5.55538 2.10663C3.49976 3.48015 1.89761 5.43238 0.951511 7.71646C0.00541604 10.0005 -0.242126 12.5139 0.24019 14.9386C0.722505 17.3634 1.91301 19.5907 3.66117 21.3388C5.40933 23.087 7.63661 24.2775 10.0614 24.7598C12.4861 25.2421 14.9995 24.9946 17.2835 24.0485C19.5676 23.1024 21.5199 21.5002 22.8934 19.4446C24.2669 17.389 25 14.9723 25 12.5C25 9.18479 23.683 6.00537 21.3388 3.66117C18.9946 1.31696 15.8152 0 12.5 0ZM18 9.53V11C17.314 11.0045 16.634 10.8719 16 10.61C15.5901 10.4483 15.2035 10.2331 14.85 9.97V14.3C14.8486 14.7908 14.7457 15.276 14.5478 15.7252C14.3499 16.1744 14.0613 16.5777 13.7 16.91C13.1017 17.4931 12.3359 17.8743 11.51 18C11.3136 18.0153 11.1164 18.0153 10.92 18C10.0568 18.0058 9.21488 17.7322 8.52001 17.22C8.10402 16.9217 7.75665 16.5378 7.50118 16.0942C7.24572 15.6507 7.08808 15.1576 7.03883 14.648C6.98958 14.1385 7.04987 13.6243 7.21565 13.14C7.38142 12.6557 7.64886 12.2125 8.00001 11.84C8.38297 11.4297 8.848 11.1046 9.36486 10.8858C9.88172 10.6669 10.4388 10.5594 11 10.57C11.1965 10.5597 11.3935 10.5597 11.59 10.57V12.57C11.4016 12.5142 11.2065 12.484 11.01 12.48C10.7693 12.4747 10.53 12.5172 10.3059 12.605C10.0817 12.6929 9.87723 12.8243 9.70423 12.9917C9.53124 13.1591 9.39318 13.3592 9.29805 13.5803C9.20291 13.8015 9.15259 14.0393 9.15001 14.28C9.15725 14.5878 9.24509 14.8883 9.40477 15.1515C9.56446 15.4147 9.79038 15.6314 10.06 15.78C10.3181 15.9244 10.605 16.0098 10.9 16.03C11.1335 16.0405 11.367 16.0101 11.59 15.94C11.9529 15.8315 12.2717 15.6101 12.5001 15.308C12.7285 15.0058 12.8546 14.6387 12.86 14.26V6H14.91C14.9102 6.19157 14.9303 6.3826 14.97 6.57C15.1276 7.30568 15.5559 7.95527 16.17 8.39C16.7024 8.77731 17.3417 8.99039 18 9V9.53Z" fill="var(--fill-0, white)"/>
</g>
<defs>
<clipPath id="clip0_0_32">
<rect width="25" height="25" fill="white"/>
</clipPath>
</defs>
</svg>
