<svg width="25" height="25" viewBox="0 0 25 25" fill="none" xmlns="http://www.w3.org/2000/svg">
<g clip-path="url(#clip0_2_3435)">
<path d="M12.4982 24.9964C19.4008 24.9964 24.9964 19.4008 24.9964 12.4982C24.9964 5.59564 19.4008 0 12.4982 0C5.59564 0 0 5.59564 0 12.4982C0 19.4008 5.59564 24.9964 12.4982 24.9964Z" fill="#7A519B"/>
<path d="M17.1095 19.8307C16.5372 19.6507 16.2852 19.5931 16.0296 19.4923C11.1268 17.4369 7.55951 14.0388 5.57247 9.04957C5.41291 8.67525 5.33991 8.26974 5.35891 7.86328C5.37791 7.45681 5.48842 7.05988 5.6822 6.70207C5.87598 6.34427 6.14803 6.03483 6.47807 5.79682C6.80811 5.5588 7.18762 5.39837 7.58831 5.32747C7.82229 5.27707 8.20386 5.27347 8.30825 5.41026C9.22828 6.50657 10.0852 7.65434 10.8748 8.84799C11.0152 9.07477 10.6301 9.84151 10.2881 10.1151C9.50695 10.7378 9.44216 11.465 9.96052 12.1345C10.6859 13.0776 11.5075 13.9426 12.4119 14.7155C13.2039 15.3887 14.0138 15.4931 14.8381 14.4887C15.6625 13.4844 16.5876 13.8732 18.7978 15.6874C19.7121 16.4362 19.9461 17.2173 19.1578 18.0813C18.5144 18.709 17.8301 19.2934 17.1095 19.8307Z" fill="white"/>
<path d="M19.4384 11.9185L19.0136 12.6745C18.7807 12.377 18.5971 12.044 18.47 11.6882C17.8401 8.10285 16.5982 6.83935 12.9589 6.11941C12.6817 6.06181 12.4549 5.78824 12.2065 5.61545C12.4801 5.46786 12.7465 5.20868 13.0273 5.18708C16.1986 4.9531 19.4024 8.16405 19.4384 11.9185Z" fill="white"/>
<path d="M17.779 11.386L17.2462 11.9979C17.077 11.7387 16.7891 11.494 16.7567 11.2204C16.5515 9.28734 15.4968 8.21103 13.5925 7.86546C13.2901 7.81146 13.0382 7.47309 12.761 7.2679C13.121 7.13471 13.4809 6.85394 13.8085 6.90793C14.9008 7.04587 15.9058 7.57612 16.6363 8.39994C17.3667 9.22376 17.7728 10.285 17.779 11.386Z" fill="white"/>
<path d="M16.0798 10.9035L15.7198 11.4327C15.5182 11.2599 15.3095 11.1015 15.1259 10.9179C14.6723 10.468 14.2296 10.0144 13.7904 9.55364C13.6032 9.35926 13.4304 9.14687 13.2612 8.94169C13.5096 8.8121 13.7544 8.58172 14.0028 8.58172C15.0071 8.55652 16.0726 9.67243 16.0798 10.9035Z" fill="white"/>
</g>
<defs>
<clipPath id="clip0_2_3435">
<rect width="25" height="25" fill="white"/>
</clipPath>
</defs>
</svg>
