<svg width="25" height="25" viewBox="0 0 25 25" fill="none" xmlns="http://www.w3.org/2000/svg">
<g clip-path="url(#clip0_2_3445)">
<path d="M12.5 0.634766C5.94727 0.634766 0.634766 5.94727 0.634766 12.5C0.634766 14.8975 1.34766 17.1338 2.57324 18.999L1.04492 24.1748L6.4209 22.6855C8.19824 23.75 10.2783 24.3604 12.5 24.3604C19.0527 24.3604 24.3652 19.0479 24.3652 12.4951C24.3652 5.94727 19.0527 0.634766 12.5 0.634766Z" fill="#25D366"/>
<path d="M19.0185 15.7569C19.0039 15.6006 18.9111 15.4639 18.7695 15.4004C17.8125 14.961 16.8506 14.5215 15.8935 14.0821C15.7861 14.0332 15.6543 14.0576 15.5762 14.1504L14.2773 15.6153C14.1748 15.7324 14.0137 15.7715 13.8721 15.7129C13.1982 15.4346 12.29 14.9658 11.3721 14.1748C10.2734 13.2324 9.6289 12.2217 9.26757 11.5625C9.44823 11.4405 9.9414 11.0742 10.1611 10.3955C10.1611 10.3907 10.166 10.3858 10.166 10.3858C10.3027 9.96585 10.2734 9.51175 10.1221 9.09671C9.86327 8.40823 9.34569 7.07522 9.1455 6.87014C9.11132 6.83596 9.07225 6.80178 9.07225 6.80178C8.92577 6.66995 8.73534 6.59671 8.53515 6.58694C8.46679 6.58206 8.39354 6.58206 8.31542 6.58206C8.09081 6.57718 7.89061 6.57718 7.74413 6.59671C7.32909 6.6553 7.02636 6.93362 6.83593 7.168C6.60643 7.44632 6.333 7.86135 6.15233 8.40823C6.13768 8.45706 6.12304 8.501 6.10839 8.54983C5.90819 9.24319 5.94725 9.98538 6.18651 10.669C6.41112 11.3086 6.73827 12.0703 7.23143 12.876C8.0664 14.2481 8.9746 15.0977 9.58983 15.6592C10.2832 16.2989 11.1426 17.085 12.5049 17.7393C13.7646 18.3448 14.9072 18.5694 15.6738 18.6621C15.9863 18.6914 16.5625 18.6963 17.2217 18.4473C17.5244 18.3301 17.7783 18.1885 17.9834 18.0371C18.5254 17.6514 18.9062 17.0703 19.0039 16.416C19.0039 16.4112 19.0039 16.4063 19.0039 16.4014C19.0381 16.1524 19.0332 15.9375 19.0185 15.7569Z" fill="white"/>
</g>
<defs>
<clipPath id="clip0_2_3445">
<rect width="25" height="25" fill="white"/>
</clipPath>
</defs>
</svg>
