<svg preserveAspectRatio="none" width="100%" height="100%" overflow="visible" style="display: block;" viewBox="0 0 25 25" fill="none" xmlns="http://www.w3.org/2000/svg">
<g id="ico-btn-youtube.svg" clip-path="url(#clip0_0_25)">
<path id="Vector" d="M12.5 0C10.0277 0 7.61099 0.733112 5.55538 2.10663C3.49976 3.48015 1.89761 5.43238 0.951511 7.71646C0.00541604 10.0005 -0.242126 12.5139 0.24019 14.9386C0.722505 17.3634 1.91301 19.5907 3.66117 21.3388C5.40933 23.087 7.63661 24.2775 10.0614 24.7598C12.4861 25.2421 14.9995 24.9946 17.2835 24.0485C19.5676 23.1024 21.5199 21.5002 22.8934 19.4446C24.2669 17.389 25 14.9723 25 12.5C25 9.18479 23.683 6.00537 21.3388 3.66117C18.9946 1.31696 15.8152 0 12.5 0ZM17.67 15.48C17.6043 15.7381 17.4731 15.9749 17.2892 16.1676C17.1053 16.3603 16.8748 16.5023 16.62 16.58C15.2545 16.7626 13.8776 16.8461 12.5 16.83C11.1224 16.8461 9.74552 16.7626 8.38001 16.58C8.12522 16.5023 7.89475 16.3603 7.71084 16.1676C7.52692 15.9749 7.39576 15.7381 7.33001 15.48C7.15615 14.4896 7.07247 13.4855 7.08001 12.48C7.0728 11.4745 7.15647 10.4704 7.33001 9.48C7.39576 9.22188 7.52692 8.98506 7.71084 8.79238C7.89475 8.59971 8.12522 8.45768 8.38001 8.38C9.74552 8.19744 11.1224 8.11389 12.5 8.13C13.8776 8.11389 15.2545 8.19744 16.62 8.38C16.8748 8.45768 17.1053 8.59971 17.2892 8.79238C17.4731 8.98506 17.6043 9.22188 17.67 9.48C17.8435 10.4704 17.9272 11.4745 17.92 12.48C17.9275 13.4855 17.8439 14.4896 17.67 15.48Z" fill="var(--fill-0, white)"/>
<path id="Vector_2" d="M11.42 14.4L14.67 12.5L11.42 10.6V14.4Z" fill="var(--fill-0, white)"/>
</g>
<defs>
<clipPath id="clip0_0_25">
<rect width="25" height="25" fill="white"/>
</clipPath>
</defs>
</svg>
