<svg width="162" height="43" viewBox="0 0 162 43" fill="none" xmlns="http://www.w3.org/2000/svg">
<path d="M155.862 0.00690371C157.056 -0.040082 158.304 0.144273 159.315 0.822333C160.972 1.86114 161.77 3.95041 161.448 5.84772C159.847 15.9638 158.224 26.0744 156.616 36.1885C156.534 36.7019 156.457 37.2172 156.33 37.7227C155.517 40.7413 152.545 43.0785 149.394 42.9981C101.31 42.9942 53.2249 42.9981 5.13966 42.9962C3.53638 43.0353 1.89786 42.3289 0.951182 41.0098C0.122221 39.8946 -0.146261 38.4345 0.0732526 37.0782C1.71777 26.7328 3.37012 16.3894 5.02052 6.04597C5.44391 3.14502 7.85702 0.692506 10.7168 0.127997C11.1341 0.0457555 11.5612 0.0167007 11.9863 0.00885683C59.9441 0.00493663 107.905 0.012784 155.862 0.00690371ZM138.584 9.08796C135.168 8.59793 131.533 9.257 128.622 11.1505C126.572 12.4755 124.997 14.5961 124.562 17.0206C124.193 18.9278 124.232 21.1096 125.479 22.7071C126.796 24.3809 128.96 25.0311 130.977 25.3741C132.831 25.7308 134.773 25.5489 136.584 26.1485C137.311 26.3798 138.088 26.9738 138.002 27.8262C137.941 28.961 136.861 29.661 135.877 29.9669C134.164 30.4843 132.23 30.5056 130.58 29.7628C129.792 29.4216 129.195 28.6456 129.285 27.7579C127.002 27.7598 124.72 27.7579 122.438 27.7598C122.111 29.618 122.44 31.651 123.665 33.1329C125.331 35.1811 127.997 36.0947 130.547 36.377C134.216 36.7455 138.094 35.9842 141.149 33.8536C143.153 32.4658 144.646 30.2744 144.925 27.8223C145.199 26.0291 144.954 23.9695 143.576 22.6602C141.879 21.055 139.454 20.6839 137.235 20.3507C135.577 20.0861 133.839 20.1253 132.267 19.4747C131.543 19.1924 131.004 18.416 131.208 17.6241C131.42 16.3306 132.67 15.552 133.842 15.2247C135.232 14.8523 136.845 14.802 138.109 15.586C138.766 15.98 139.034 16.7622 138.97 17.4991H145.711C146.013 15.7331 145.758 13.808 144.666 12.3458C143.251 10.4152 140.887 9.43886 138.584 9.08796ZM59.3135 10.6641C56.3518 9.04509 52.8076 8.75677 49.5264 9.34284C45.8845 10.0034 42.4248 11.8164 39.9473 14.586C37.2542 17.5731 35.8296 21.6441 35.9883 25.6563C36.0843 28.0946 36.9658 30.5376 38.6397 32.337C40.6919 34.5891 43.6993 35.7745 46.6904 36.0489C50.9712 36.4291 55.4854 35.2766 58.7959 32.4659C60.8891 30.7078 62.3634 28.2855 63.1455 25.6768C60.813 25.6768 58.48 25.6768 56.1475 25.6788C55.7065 26.6233 55.1208 27.5154 54.3154 28.1934C52.767 29.5341 50.6399 30.0767 48.6231 29.9161C47.1059 29.7887 45.6117 29.0786 44.6768 27.8575C43.4599 26.3091 43.1911 24.1961 43.5693 22.3067C43.9908 19.9762 45.2868 17.7536 47.3096 16.4678C49.3931 15.1272 52.1334 14.8544 54.4443 15.7403C55.8615 16.297 56.7714 17.6756 57.0772 19.126C59.4095 19.128 61.7419 19.128 64.0742 19.126C64.0527 17.9578 63.9291 16.7814 63.5508 15.67C62.8648 13.5258 61.2813 11.7304 59.3135 10.6641ZM16.7695 30.3516C16.4775 32.1862 16.1807 34.0229 15.8926 35.8614C19.5305 35.8634 23.1707 35.8634 26.8106 35.8594C27.1045 34.023 27.3984 32.1881 27.6865 30.3497C24.0488 30.3477 20.4092 30.3477 16.7695 30.3516ZM63.8272 34.5635C63.5528 34.9379 63.5491 35.4185 63.4707 35.8594C65.7914 35.8634 68.11 35.8614 70.4307 35.8614C71.1558 34.7521 71.8715 33.6367 72.5967 32.5294C76.2562 32.5313 79.9138 32.5274 83.5713 32.5313C83.9417 33.6406 84.3024 34.7521 84.6729 35.8614C86.9936 35.8614 89.313 35.8634 91.6338 35.8614C91.9866 34.8559 91.4395 33.9107 91.165 32.9659C88.5581 24.9824 85.9526 17.0011 83.3438 9.0196C82.3226 9.0196 81.3014 9.01764 80.2803 9.0196C74.796 17.5342 69.3174 26.0528 63.8272 34.5635ZM99.4795 9.36042C98.0682 18.1926 96.6593 27.0272 95.2539 35.8594C97.6255 35.8634 99.9975 35.8614 102.371 35.8614C102.789 33.2623 103.2 30.6626 103.615 28.0635C104.848 28.0616 106.082 28.0596 107.316 28.0635C108.491 30.6626 109.667 33.2623 110.845 35.8614C113.497 35.8634 116.147 35.8614 118.799 35.8614C118.848 35.5301 118.9 35.2024 118.955 34.8751C117.585 32.0741 116.215 29.2747 114.849 26.4737C118.077 24.5861 120.3 21.0016 120.325 17.2364C120.359 15.0489 119.516 12.8001 117.826 11.3653C116.166 9.92085 113.912 9.37611 111.754 9.36433C107.661 9.35256 103.57 9.36042 99.4795 9.36042ZM21.6592 15.8272C19.3719 15.8292 17.0822 15.8252 14.793 15.8292C14.5206 17.5343 14.248 19.2393 13.9775 20.9444C16.2669 20.9444 18.5553 20.9424 20.8428 20.9464C20.4861 23.2161 20.1194 25.4862 19.7588 27.7559C21.6894 27.7598 23.6183 27.7579 25.5488 27.7579C25.9154 25.4862 26.2702 23.2161 26.6367 20.9464C28.9534 20.9424 31.2683 20.9464 33.585 20.9444C33.8574 19.2393 34.1299 17.5343 34.4004 15.8292C32.0837 15.8252 29.7689 15.8292 27.4522 15.8253C27.8089 13.5809 28.1696 11.3381 28.5244 9.09382C26.5957 9.09186 24.6641 9.09186 22.7354 9.09382C22.3747 11.3381 22.0198 13.5829 21.6592 15.8272ZM82.1875 26.7374C80.0668 26.7393 77.9479 26.7393 75.8272 26.7374C77.2443 24.4166 78.6551 22.0913 80.0801 19.7745C80.7798 22.0952 81.4897 24.4147 82.1875 26.7374ZM105.633 15.4171C107.418 15.4288 109.206 15.3503 110.987 15.4444C111.879 15.4797 112.725 16.0625 113.021 16.9132C113.769 19.0594 112.248 21.8814 109.872 22.0225C108.108 22.0715 106.342 22.0303 104.576 22.0421C104.927 19.8332 105.278 17.626 105.633 15.4171Z" fill="#FEFEFE"/>
</svg>
